<svg xmlns="http://www.w3.org/2000/svg" viewBox="0 0 85 85"><defs><style>.cls-1{fill:#fff;}.cls-2{fill:#d2d2d2;}</style></defs><g id="Layer_1-2"><circle class="cls-1" cx="42.5" cy="42.5" r="42.5"/><path class="cls-2" d="M42.5 23c6.35 0 7.11 0 9.62.14a12.82 12.82 0 0 1 4.42.82 7.89 7.89 0 0 1 4.51 4.51 12.82 12.82 0 0 1 .82 4.42c.12 2.51.14 3.27.14 9.62s0 7.11-.14 9.62a12.82 12.82 0 0 1-.82 4.42 7.89 7.89 0 0 1-4.51 4.51 12.82 12.82 0 0 1-4.42.82c-2.51.12-3.26.14-9.62.14s-7.11 0-9.62-.14a12.82 12.82 0 0 1-4.42-.82 7.93 7.93 0 0 1-4.46-4.52 12.82 12.82 0 0 1-.82-4.42c-.12-2.51-.14-3.27-.14-9.62s0-7.11.14-9.62a12.82 12.82 0 0 1 .82-4.42 7.89 7.89 0 0 1 4.46-4.46 12.82 12.82 0 0 1 4.42-.82c2.51-.12 3.27-.14 9.62-.14m0-4.29c-6.46 0-7.27 0-9.81.14a17.54 17.54 0 0 0-5.78 1.11 12.14 12.14 0 0 0-7 7 17.54 17.54 0 0 0-1.11 5.78c-.11 2.54-.14 3.35-.14 9.81s0 7.27.14 9.81a17.64 17.64 0 0 0 1.2 5.69 12.14 12.14 0 0 0 7 7 17.54 17.54 0 0 0 5.78 1.11c2.54.11 3.35.14 9.81.14s7.27 0 9.81-.14a17.54 17.54 0 0 0 5.78-1.11 12.14 12.14 0 0 0 7-7 17.54 17.54 0 0 0 1.11-5.78c.11-2.54.14-3.35.14-9.81s0-7.27-.14-9.81a17.54 17.54 0 0 0-1.11-5.78 12.14 12.14 0 0 0-7-7 17.54 17.54 0 0 0-5.78-1.11c-2.54-.11-3.35-.14-9.81-.14zM42.5 30.28a12.22 12.22 0 1 0 12.22 12.22 12.22 12.22 0 0 0-12.22-12.22zm0 20.15a7.93 7.93 0 1 1 7.93-7.93 7.93 7.93 0 0 1-7.93 7.93zM55.2 26.94a2.86 2.86 0 1 1-2.86 2.86 2.86 2.86 0 0 1 2.86-2.86z"/></g></svg>