<svg xmlns="http://www.w3.org/2000/svg" viewBox="0 0 85 85"><defs><style>.cls-1{fill:#fff;}.cls-2{fill:#d2d2d2;}</style></defs><g id="Layer_1-2"><circle class="cls-1" cx="42.5" cy="42.5" r="42.5"/><path class="cls-2" d="M63.18 19.26h-41.36a2.56 2.56 0 0 0-2.56 2.56v41.36a2.56 2.56 0 0 0 2.56 2.56h22.27v-18h-6.09v-7h6.06v-5.18c0-6 3.66-9.27 9-9.27a46.57 46.57 0 0 1 5.41.28v6.27h-3.71c-2.92 0-3.48 1.39-3.48 3.42v4.48h6.95l-.91 7h-6v18h11.85a2.56 2.56 0 0 0 2.56-2.56v-41.36a2.56 2.56 0 0 0-2.55-2.56z"/></g></svg>