<svg xmlns="http://www.w3.org/2000/svg" viewBox="0 0 85 85"><defs><style>.cls-1{fill:#fff;}.cls-2{fill:#d2d2d2;}</style></defs><g id="Layer_1-2"><circle class="cls-1" cx="42.5" cy="42.5" r="42.5"/><path class="cls-2" d="M66.3 27.74a19.8 19.8 0 0 1-5.61 1.54 9.74 9.74 0 0 0 4.31-5.41 19.48 19.48 0 0 1-6.2 2.37 9.77 9.77 0 0 0-16.89 6.68 10.44 10.44 0 0 0 .25 2.23 27.76 27.76 0 0 1-20.16-10.15 9.77 9.77 0 0 0 3 13 9.84 9.84 0 0 1-4.43-1.22v.13a9.76 9.76 0 0 0 7.84 9.57 10 10 0 0 1-4.41.17 9.76 9.76 0 0 0 9.12 6.78 19.58 19.58 0 0 1-12.12 4.16 20.1 20.1 0 0 1-2.33-.14 27.51 27.51 0 0 0 15 4.39c18 0 27.79-14.88 27.79-27.78v-1.27a19.7 19.7 0 0 0 4.84-5.05z"/></g></svg>