<svg xmlns="http://www.w3.org/2000/svg" viewBox="0 0 200 181.49"><defs><style>.cls-1{fill:#bfbfbf;}</style></defs><path class="cls-1" d="M15.44 0a15.55 15.55 0 0 0-15.44 15.44v150.61a15.55 15.55 0 0 0 15.44 15.44h169.12a15.55 15.55 0 0 0 15.44-15.44v-150.61a15.55 15.55 0 0 0-15.44-15.44zm121.68 11.83a6.25 6.25 0 1 1-6.24 6.25 6.25 6.25 0 0 1 6.24-6.25zm20.65 0a6.25 6.25 0 1 1-6.25 6.25 6.25 6.25 0 0 1 6.25-6.25zm20.65 0a6.25 6.25 0 1 1-6.25 6.25 6.24 6.24 0 0 1 6.25-6.25zm-165.18 24.68h173.53v129.54a2.07 2.07 0 0 1-1.92 2.21h-169.41a2.07 2.07 0 0 1-2.2-1.93 1.31 1.31 0 0 1 0-.28zm103.69 19.22v37.81h49.24v-37.81zm-81.83 4.87v8.2h64.62v-8.2zm0 25.64v8.21h64.62v-8.21zm0 25.64v8.21h129.24v-8.21zm0 25.65v8.2h129.24v-8.2z" id="Layer_1-2"/></svg>