<svg xmlns="http://www.w3.org/2000/svg" viewBox="0 0 142.21 177.67"><defs><style>.cls-1{fill:#d2d2d2;}.cls-2,.cls-3,.cls-4{fill:none;}.cls-2{stroke:#fff;}.cls-2,.cls-3,.cls-4,.cls-5{stroke-linecap:round;}.cls-2,.cls-3,.cls-5{stroke-linejoin:round;}.cls-3,.cls-4,.cls-5{stroke:#d2d2d2;}.cls-4{stroke-miterlimit:10;}.cls-5{fill:#fff;}</style></defs><g id="レイヤー_1"><path class="cls-1" d="M26.38 8.47c-.36.26-2.64 1-3.3 2.9s-8.92 15.14-6.48 27.22c2.66 2.8 23.57 10.48 27.28 8.22 3.92-1.18 24.12-11.81 24.28-17.12-1.38-6.77-8.75-25.78-14.52-28.75-3.32-1.1-1.92-.54-3.18-.35s-21.14 5.69-24.08 7.88z"/><path class="cls-2" d="M43.64 44.28c-1.4-7-9.07-27.85-14.72-33.9"/><path class="cls-3" d="M26.88 8.86c-5.57-2-13.33 27.25-10.28 29.73 5.58 4.53 26.67 11 27.25 7.68M26.38 8.47c5.17-2.19 22-8.77 26.38-7.89 4.89 1 14.38 21.94 15.39 28.88.7 4.83-20.65 16.38-24.27 17.35M27.78 44v23c0 8.49 26.28 11.65 31.88-1.56v-27.18M.5 67.34c1.73.87 41.92 14.61 52.84 18M60.21 58.29c10.84 3.62 21.54 7.25 26.12 9.05M61.8 83.37c2.34-1.08 17.75-10.7 22.59-14.73M.54 66.61c4.85-2.24 21.13-11 25.52-12.42M56.57 106.38c2.34-1.08 25.21-14.95 30.05-19M56.57 86.54v19.84M.5 66.69v19.84"/><path class="cls-4" d="M86.33 68.64v18.76"/><path class="cls-3" d="M.79 87c1.08.65 53.3 18.87 55.13 19.41M20.75 109.04v12.87M3 98.99l7.72-4.61M3 98.99l17.84 8.33 13.63-8.37M34.85 99.08l-.38 14.74-13.72 8.75-17.67-8.36-.08-15.22M7.46 116.91c0 7.11-.2 4.57-.2 8 0 12.33 22.52 11.18 22.52 1.73v-9.85M10.73 90.9v2.59c0 10.79 14.61 10.38 18.27 3.78"/><path class="cls-1" d="M83.1 89.9v47.19l-28.47 20.38-13.51-7.67v-48.53l15.45 5.11 26.53-16.48z"/><path class="cls-2" d="M54.41 110.58v39.65"/><path class="cls-5" d="M103.5 148.67c-5.71 6.12-5.71 7.1-9.94 5.87-1.47-.42-10.67-2.15-13.81-4.17-5.9-3.79-9.47-5.18-12.55-7.07a93.79 93.79 0 0 0-12.61-6.6c-4.35-1.7-11.41 3.06-5.59 12.92 5.55 9.46 12.91 12.86 15.4 14.71 2.79 2.07 10.13 11.21 13 12.84"/><path class="cls-3" d="M57 149.56c3.48-3 1.91-5.67-.21-7.28-1.11-.84-4.44-4.71-7.89-2.3s-1.44 5.26-1 6.11c1.44 2.67 4.29 7.69 9.1 3.47zM83.82 105.64a59.51 59.51 0 0 1 10.64 2.89c2.32 1.08 13.28 7.43 14.52 9.08 1.44 1.92 11.75 9.69 14.23 12.49M84.14 121a10.43 10.43 0 0 1 5.58.81c.71 1.06 5.82 4.94 7 5.74 0 1.43.62 7.83 3.5 12.53M103 137.43c-1.63-.11-12.52 16.25-11.18 16.7M132.48 136.36c2.25 2.72 5.06 14.38 9.23 26.27M83.82 104.51c3.18.35 12.18 3.43 14.54 4.49a162.28 162.28 0 0 1 13.69 8.85c1.71 1.34 11.06 7.41 14.12 10.69a24.66 24.66 0 0 1 4 5.35M97.83 126.72c.44-.21 2.16-1.22 2.38-1.22M90.07 120.61c0-.36.51-1.36.51-1.8"/></g></svg>