<svg xmlns="http://www.w3.org/2000/svg" viewBox="0 0 65.89 58.16"><defs><style>.cls-1{fill:none;stroke:#fff;stroke-linecap:round;stroke-linejoin:round;}</style></defs><g id="レイヤー_1"><path class="cls-1" d="M9.57 18.21c-.57-1.4-2.48-6.49 1.43-2.92 1 .89.75 1.19.47 1.64s-1.57 2.07-1.9 1.28zM9.66 19c.33.31-.43 2.59-.39 3.34 0 .55 1 1.3 2.3 2.31 1.95 1.52 4.55 3.54 5.91 4.5.66.47 7.19 7.64 8.46 8.74 2.54 2.2 13.26 6.69 14.31 8.22M35.13 43c4 2.52 13.23 13.65 13.6 14.68M9.58 13.86c.67-.15 3.27-.22 4.42 1.05s2.21 3.42 2.83 3.8 5.51 3.08 6.48 3.14 3.26-1.45 4.32-1.25M8.52 16.1a19.29 19.29 0 0 1-2 0l-6.02-1.1c1-.39 5.39-1.73 6.07-1.9s45.43-2.82 45.77-2.79c1.12.11 1.91 3 .12 3.19-1.42.17-36.37 2.18-37.21 2.27M52.05 10.83c-.24.18-.77 1.86.46 2.44M24.34 21.35c.49-.31 4.24-4 2.9-6M20.35 6.15c-.39 2 1.58 4.58 4.88 5.51M1.81 14.64a.52.52 0 0 1 .07.46M21 9.43a16.37 16.37 0 0 0-3.32 2.57M9.41 12.65a.93.93 0 0 1-.28-1.45c.55-.65 7.58-6.46 8.23-7.28s2-3 3.73-3.39c2.08-.53 8.91 4.82 10.64 5.65s6.33 3.48 6.93 4.7M22.22 11.88c.14-.12.83-.84.93-.9M29 4.23c.74.33 2 1 2.56 1.21s8.35 1.56 9.07 2.32a5.89 5.89 0 0 1 1.55 2.88M16.89 18.45c.25-.21 1.83-2.14 1.74-2.63M22.73 15.49c-.12.14-1.13 1.18-1.27 1.26.43.39 1.09 3.25 0 4.08M24 15.9a2.56 2.56 0 0 1 1.87 3.64M43 14.58a48.61 48.61 0 0 0 1.69 7.74c.87 3 2.59 7.91 2.87 8.94.36 1.35 2.67 3.94 3.68 5.4a26.26 26.26 0 0 0 3.52 4.34c1.52 1.47 8 9.35 10.63 11.87"/></g></svg>