<svg xmlns="http://www.w3.org/2000/svg" viewBox="0 0 79.26 50.75"><defs><style>.cls-1{fill:#fff;}.cls-2{fill:none;stroke:#fff;stroke-linecap:round;stroke-linejoin:round;}</style></defs><g id="レイヤー_1"><path class="cls-1" d="M77.94 21.26c3.16.61-.13 4-1.92 2.54s-1.24-3.15 1.92-2.54z"/><path class="cls-2" d="M76.56 22.35c-.72-1.24-1.64-4.53-.42-6.11"/><path class="cls-1" d="M76.92 15.6c-3.14-1.66-5.38.52-2.65 2.79-1.51-2.06-.68-4.09 2.06-1.59a3.34 3.34 0 0 0 .59-1.2z"/><path class="cls-2" d="M68.49 27c-2.14-1-6.4 0-5.75 1.84s-2.89 3.66-5.74 1.8M45.39 10.29c.2 4.43-3.52 37.81-6.46 39.43s-25.18-.94-27.71-1.42-9.22-8.79-10.59-10.8 8.37-31.95 9.97-34.97 12.9-1.92 15.64-1.39 17.19 4.56 18.76 6.61M41.34 9.4c-1.56.15-19.89-2.7-20.89-3.19s-3.45-1.51-4.51-2.65M19.61 8.32c-.26 1.32-7.81 34.18-8.18 36.08"/><path class="cls-2" d="M29.31 25.43c10.22 1.83 12.36-9 2.15-11.08-7.13-1.42-12.36 9.25-2.15 11.08zm1.76-9.18c6.7 1.34 5.3 8.48-1.41 7.28s-3.28-8.21 1.41-7.28z"/><path class="cls-1" d="M30.63 18.86c1.06.09 2.22 2.24.32 2.1s-2.55-2.3-.32-2.1z"/><path class="cls-2" d="M25.45 44.47c13.45 2.4 16.26-11.91 2.82-14.59-9.38-1.88-16.27 12.19-2.82 14.59zm2.31-12.09c8.83 1.76 7 11.17-1.86 9.59s-4.31-10.82 1.86-9.59z"/><path class="cls-1" d="M27.18 35.82c1.4.12 2.93 3 .43 2.77s-3.36-3.03-.43-2.77z"/></g></svg>