<svg xmlns="http://www.w3.org/2000/svg" viewBox="0 0 476.62 54.3"><defs><style>.cls-1{fill:#4d4d4d;}</style></defs><g id="Layer_1-2"><path class="cls-1" d="M0 3.05h5.38v50.89h-5.38zM20.64 34.82c0-11.41 8.29-19.41 19.7-19.41 6.47 0 11.92 2.55 15 7.56l-3.86 2.62a13 13 0 0 0-11.12-5.67c-8.36 0-14.46 6-14.46 14.9s6.1 14.9 14.46 14.9a12.91 12.91 0 0 0 11.12-5.59l3.86 2.61c-3.06 4.94-8.51 7.56-15 7.56-11.41 0-19.7-8.07-19.7-19.48zM103.66 31.77v22.17h-5.17v-21.66c0-8.07-4.21-12.22-11.48-12.22-8.22 0-13.38 5.09-13.38 13.82v20.06h-5.16v-53.94h5.16v22.39c2.84-4.43 7.85-7 14.32-7 9.31.02 15.71 5.4 15.71 16.38zM120.15 3.63a3.73 3.73 0 0 1 3.78-3.63 3.66 3.66 0 0 1 3.78 3.56 3.7 3.7 0 0 1-3.78 3.78 3.74 3.74 0 0 1-3.78-3.71zm1.17 12.07h5.16v38.24h-5.16zM163.77 15.41v5c-.44 0-.87-.08-1.24-.08-8 0-12.86 5.09-12.86 14.11v19.5h-5.16v-38.24h4.94v7.49c2.4-5.09 7.27-7.78 14.32-7.78zM172.49 34.82c0-11.34 8.29-19.41 19.48-19.41s19.41 8.07 19.41 19.41-8.21 19.48-19.38 19.48-19.51-8.14-19.51-19.48zm33.66 0c0-8.94-6-14.9-14.18-14.9s-14.24 6-14.24 14.9 6.1 14.9 14.24 14.9 14.18-5.96 14.18-14.9zM290.32 3.05v50.89h-2l-36.16-46.38v46.38h-2.47v-50.89h2l36.13 46.38v-46.38zM310.09 4a2.4 2.4 0 0 1 4.8-.07 2.4 2.4 0 0 1-4.8.07zm1.24 12.21h2.4v37.73h-2.4zM332.26 4a2.4 2.4 0 0 1 4.8-.07 2.4 2.4 0 0 1-4.8.07zm1.24 12.21h2.4v37.73h-2.4zM351.38 35c0-11.2 7.92-19.12 18.54-19.12s18.53 7.96 18.53 19.12-7.85 19.12-18.53 19.12-18.54-7.89-18.54-19.12zm34.67 0c0-10-6.9-16.87-16.13-16.87s-16.14 6.87-16.14 16.87 6.9 17 16.14 17 16.13-6.93 16.13-17zM416.87 32.79l-10.54 9.66v11.49h-2.4v-53.94h2.4v39.54l25.59-23.33h3.2l-16.36 15.12 18 22.61h-3.05zM476.62 29.51v24.43h-2.32v-7.56c-2.33 4.72-7.13 7.78-14 7.78-8.51 0-13.52-4.29-13.52-10.62 0-5.52 3.49-10.32 13.74-10.32h13.74v-3.71c0-7.48-4-11.41-11.63-11.41a19.51 19.51 0 0 0-13.45 5.09l-1.31-1.75a21.92 21.92 0 0 1 14.83-5.52c8.98 0 13.92 4.73 13.92 13.59zm-2.39 13.49v-7.82h-13.74c-8.22 0-11.34 3.49-11.34 8.22 0 5.38 4.21 8.72 11.26 8.72s11.49-3.27 13.82-9.12z"/></g></svg>