<svg xmlns="http://www.w3.org/2000/svg" viewBox="0 0 153.49 182.79"><defs><style>.cls-1,.cls-5{fill:none;stroke-linecap:round;}.cls-1,.cls-6{stroke:#d2d2d2;}.cls-1,.cls-3,.cls-5,.cls-6{stroke-miterlimit:10;}.cls-2,.cls-3{fill:#d2d2d2;}.cls-3,.cls-5{stroke:#fff;}.cls-4,.cls-6{fill:#fff;}</style></defs><g id="レイヤー_1"><path class="cls-1" d="M70.46 128.46c6-15.33 6.36-32.24 6.36-41.58M76.82 84c-8.67-28-7.7-35.75-1.74-41.28M85.18 53.63c.69-3.81 5.17-10.09 6.11-13.62 2.58-9.69 7.75-6.75 8.13 1.12.17 3.67-.15 3.28-1.28 5.73a28.05 28.05 0 0 0-2 10.83M95.41 58.59c3.42 1.83 3.72 9.64 2.33 12.33M98.93 85.46c.31 2.39-6.58 33.33-9.83 39.58M99.37 83.17c6.37-1.16 11.87-27 8.53-28M76.06 40c-.16-2 3.15-26.21 2.06-31.42s2.65-14.65 7.4-1.13c.78 2.22 1.31 3.69 1 8.36a56.05 56.05 0 0 1-.07 12.67c.63 3.24.28 8.3.47 9.25M96.43 56.76c1.67 1 2.61-3.45 5.4-7.59 1.81-2.69 2.47-7.44 1.41-11.16-2-7-7.83-8.67-13.34-4.5-5 3.78-1.24 5 .26 5.29M103.06 37.16c1.73-.19 3.29 3.42 3.56 4.5a17.64 17.64 0 0 1-.42 9.81c-.81 2.62-4.21 5-5.39 3.85M104.61 55.63c.53.74 1.67.23 2.12 0 2.31-1.16 3.15-5.94 3.23-7s-.84-2.84-1.82-2.49M82 44.08c.57.69 3.91 2.87 4.47 4.12M96.12 35.94c1.62 1 1.79 5.52.25 6.09s-4.29-.61-3.63-2M100.64 169.83l-8.6 2.36-44.19-8.53 19.56-34.12 24.83-.62 3.17-3.97 57 3.31-22.15 32.29M96.95 121.47l-4.39-2.63M64.84 121.2l4.69-4.72h3.74M37.38 107.67l21.42-6.71 14.47-.34M96.95 103.89l4.44 1.36M52 117.29c-16.54-4-45.1.09-38.91 20.6 5.51 18.25 38.14 7.76 43.26 1.28 5.75-7.29-11.18-4.54-8-10.24 1.42-2.55 10.92-2.32 10.92-5.57 0-3.52-1.83-4.53-5.45-5.42"/><path class="cls-1" d="M35.4 118.89c-1.28-.47-5 3.26-1.53 3.58s5.07-2.27 1.53-3.58zM42.7 135.27c-4.33.35-7 9.16 2 6.46s3.01-6.87-2-6.46z"/><path class="cls-2" d="M0 97.7c.48-5.15 22.66 26.66 20.63 29.3s-2.66 3.11-4.26-.48-16.87-23.16-16.37-28.82z"/><path class="cls-1" d="M21.73 127.37c1.28.4 2 2.7-.14 4.3-2.32 1.75-3.49-.48-3.42-1.42M24.93 129.92c2.78 1.06 7.94 7.67 7.51 8.26s.43 1.11-.58 2.18-4.28 3.42-7.34 3.24c-.65 0-4.87-7.29-5.13-9M23.15 136.09c0 .72 1.73 4 2.08 4.52"/><path class="cls-2" d="M41.15 119.66c.22 2 5.88 3 5.42.29s-5.65-2.34-5.42-.29zM23.16 123.6c.27 2.44 7 3.52 6.45.34s-6.72-2.77-6.45-.34z"/><path class="cls-1" d="M39.56 139.78c2.28-2.49 4.13-3.62 8.5-1.46M48.4 130.27c1 0 11.94-1.18 10.92-5.57M12.2 138.48c.22 4.53 4.73 18 27.36 13.32 23.15-4.74 18.92-12.94 18.92-14.62"/><path class="cls-2" d="M85.48 134.1c.85.05-12.19.73-13 2s-1.6 17.37-1.81 18.66 5.85 9.63 6.46 10 14.73 2.47 20.35-1.94c.85 1.13 5.54 7 7.18 6.17-2.33-3-6.29-16 5.23-20.71 11.44-2.91 15.09 8.85 15.07 11a4.77 4.77 0 0 0 5.5-3.57c.36-1.81.44-16-1.67-17.85.14-2.23-.4-6.92-7-7.42a25.19 25.19 0 0 0-13.59 2.73c-1.15-2-6.34-7.8-10.92-8.28s-11.86.11-12.28 1.79.11 7.4.48 7.42z"/><path class="cls-3" d="M112.47 147.76c13.83-1.2 18.84 22.74 1 24-14.99 1.01-15.9-22.7-1-24z"/><path class="cls-4" d="M110.66 151.78c8.7-3.56 16.32 12.36 6.65 16.5s-18.06-11.84-6.65-16.5z"/><path class="cls-1" d="M115 162.79c1 0 2.37-3 .78-4.49M114.13 156.55a4.76 4.76 0 0 0-1.27-.39"/><path class="cls-5" d="M118 147c-2.66-2.18-7.26-4.38-8.74-4.45-6.58-.31-15.73 3.18-14.77 14.25.27 3.19 6 11.16 9.39 12.17M85 127.6c.18 2.24 7.48 3.71 8.72 5.78M96.92 140.73c4.46-1.5 8.67-2.1 11.64-1.69.78-1.29-.5-6.7-.5-6.7M95.65 140.12c0-.78-1.06-4.28-.67-4.67M92.5 141.74c-1 .58-10.82 1.84-14.12 2.4-1.38-.14-4.86-3.14-4.86-4.34M77.3 151.42c-.65 3.82.72 6.47.72 10.27"/><path class="cls-6" d="M79.13 134.51c2.31.05 4.21 1.54.58 2-5.35.56-3.6-2.06-.58-2z"/><path class="cls-5" d="M81.53 136.75c.06.45.35 1.54-.18 1.92a5.79 5.79 0 0 1-4.71.11 1.94 1.94 0 0 1-.37-1.58"/><path class="cls-6" d="M113.83 129.67c2.64.05 4.83 1.77.66 2.24-6.15.69-4.13-2.31-.66-2.24z"/><path class="cls-4" d="M125.42 136.29c1.54.06 2.81 1.77.38 2.24-3.57.69-2.4-2.31-.38-2.24z"/><path class="cls-5" d="M116.57 132.24c.08.52.42 1.77-.2 2.2a6.62 6.62 0 0 1-5.4.13 2.25 2.25 0 0 1-.44-1.81M85 126.12c0 4.19-.34 6.66.48 8M113.5 138c1.93-.32 7-2 7.69-.53s3.08 4.51 7.14 1.77M120.23 139.81s-.12 4.26 0 5.94"/><path class="cls-1" d="M109.08 80.64c-3.51 1.25-6 22.61-2 23.82 7.15 2.17 31.6 6.18 36.35 4.8 3.87-1.13 7.09-22.7.4-24.17-4.61-1-30.54-5.95-34.75-4.45zM111.88 83.44l-2.1 1.31 1.59 1.89M115.92 83.21a18.51 18.51 0 0 1-.61 3.8M115.23 85.2c-1.74-1.19-2.46 2 .17 1.26M117.51 87.62a2.84 2.84 0 0 0 .11-1.62M117.8 84.07c-.18-.06-.13.36.08.33M119.36 86.39a1.37 1.37 0 0 1 .12 1.29c-.25.24 2-1.14 1.52-1.71M122.96 85.06l1.69 1.65-2.16 1.3M118.11 91.52l-2.35 1.14 1.19 2.55M120.42 91.75a25.26 25.26 0 0 1-1 3.83c.23-1.57 3.16-3 1.53.24M123.11 93.39c.37-.23 1.06-.75 1.06-.75l-.94 3.44M126.5 92.86a15.78 15.78 0 0 1 1.3 2.14 16.18 16.18 0 0 0-2 2M130.22 93.88l2.17.35M131.31 94.06s-.35 2.59-.54 3.36M133.37 97.8c.19-.55-.07-1 .24-1.44M133.9 94.6c.14 0 .16.5-.07.46M135.45 96.18c.21 0 .78.27 1 .17M136.18 95c-.05.39-1.3 3.63 0 3.21M138.51 95.21c.41-.17-1.37 4.42.11 3.19M140.86 97.77c1.79-.38-.32-2.11-.79-.38-.38 1.42.38 2 1.27 1.53M145.57 95.77l-1.5 1.75.88 2.16M108.99 98.16l-1.6 1.57 1.14 2.32M113.01 98.8l-2.02 3.64M116.25 99.32a18.27 18.27 0 0 1-.62 3.87M115.17 102.62c-1.8 1-1.69-2.16.1-1.26M117.58 101.78c0 .14-.41 1.66-.14 1.8M117.75 100.56c.06-.06.35-.16.13-.29M119.27 102.41c.41-.29.6 1 .35 1.41s2.3-1.27 1.48-1.61M123.11 100.41l1.19 2.05-1.54 1.93"/><path class="cls-1" d="M110.06 77.49c-1.74-.12-5.87-1.08-6.48 4.31s-2.06 16.06-2.19 19.21 2.17 6.13 6.22 6.78 30.67 5 33 5.43c4.48.75 8.64-2 8.95-7.89s1.44-14.28 1.29-17.33c-.1-2.16-2.6-5.15-6.85-5.73-5-.67-31.27-4.61-33.94-4.78zM106.09 109.78c-1.65-.16-6.94 3.61-6.68 5.54s-.29 2.88 1.91 3.42 41.71 8.52 43.84 7 1.69-2.22 1.26-3.17-1.41-6.17-4.39-6.83c-2.19-.52-32.97-5.68-35.94-5.96zM102.23 116.15c1.35.28 41.44 8.19 42 7.34M106.1 115.73c.38-.65 2-3.66 2.28-3.93M112.38 112.44c-.46 1.43-1.26 2.58-1.54 3.43M116.48 113.37c-.4 1.31-1.7 3.56-1.68 3.75M120.53 114c0 .37-1 2.25-1.17 2.93M125.09 114.75c-.15.92-.92 2.5-1.23 3.58M129.33 115.43c-.23 1.09-.57 2.36-.85 3.26M137.5 117.16c.22 1.61 0 2.69.35 4M141.37 117.78c.07.43.69 3.66 1.17 4.18M133.06 116c0 .56-.47 4.09-.51 4.34M106.91 111.84c.46 0 34.77 5.8 35.66 6.13M104.26 113.63c.53.19 37.86 6.86 39 6.8"/><path class="cls-2" d="M44.36 64.31l6.35-1.73.98 6.47-1.71 4.14-3.46-3.14-2.16-5.74z"/><path class="cls-1" d="M50.65 75.61l6.72 34.95"/><path class="cls-2" d="M54.23 77.44l.94 6.24 20.54-3.09-1.98-7.21-19.5 4.06zM49.89 88.37l1.86 7.5-21.87 3.29 1.14-7.95 18.87-2.84zM55.74 87.49l1.91 7.49 14.85-2.24-1.19-6.98-15.57 1.73z"/><path class="cls-3" d="M51.83 101.23l1.15 7.67-10.38 2.54-1.3-8.63 10.53-1.58z"/><path class="cls-1" d="M146.77 119.18l5.64 7.95M10.75 145.75c-.17.34 3 9.47 3 9.47l34.51 19.19-.43-10.75-37.1-17.91 2.37-20.75 22.69-15.27 29.05 11.47 2.57 7.61M48.28 174.41l45.19 7.87 37.59-11.44 19.81-29.37 2.12-13.98M92.5 174.41l.52 5.97M130.32 161.69l.68 7.43"/></g></svg>