<svg xmlns="http://www.w3.org/2000/svg" viewBox="0 0 169.14 162.51"><defs><style>.cls-1,.cls-2,.cls-4,.cls-5,.cls-6{fill:none;}.cls-1,.cls-2,.cls-4,.cls-5,.cls-8{stroke:#d2d2d2;}.cls-1,.cls-2,.cls-4,.cls-5,.cls-6,.cls-8{stroke-linecap:round;}.cls-1,.cls-2,.cls-5,.cls-6{stroke-miterlimit:10;}.cls-2,.cls-4,.cls-6,.cls-8{stroke-width:0.5px;}.cls-3{fill:#d2d2d2;}.cls-4,.cls-8{stroke-linejoin:round;}.cls-5{stroke-width:0.25px;}.cls-6{stroke:#fff;}.cls-7,.cls-8{fill:#fff;}</style></defs><g id="レイヤー_1"><path class="cls-1" d="M25.14 127.13c-13.21.89-22.62 3.67-23.85 6.29M69.73 132.3c-2.13-2.63-11.72-5.06-29.85-5.38M.71 133.65c-.71 1.7.29 6.18 2.29 7.45 3.36 2.23 13.92 5.81 33.73 5.81 21.8 0 28.36-4.37 31.69-7.7.83-.83 1-6 .69-6.63M65.74 136a4.13 4.13 0 0 1 0 2.78M62.34 137.38c.42.77.52 3.76 0 4.38M58.22 138.77a12.67 12.67 0 0 1 0 4M54.38 139.18a10 10 0 0 1-.62 4.79M50.59 139.57c.31.54.58 3.94-.5 4.94M2.67 143c-.47.72.54 5.57 1.8 6.31 13.21 7.69 51.23 7.18 60.53.09 1.29-1 3.58-6.43 2.75-7.64M64.92 144c.26.47-.93 4.43-1.39 4.61M60.59 145.72c.36.37.31 3.35-.57 4.28M56.21 146.91c.47.26.72 3.45 0 4.28M52.35 147.43c.51.2.51 4 0 4.48M49.31 148.1c.36.36.61 3.76-.26 4.48M5 151.19c-.41.46 2.17 5.49 3.89 6.18 13.81 5.58 38.76 6.8 52.1-.06 1.92-1 4.27-6 3.93-6.12M60.8 153.51c.47.15-.31 2.38-1.08 3M57.19 154.45c.26.15-.57 2.83-1 3.3M53.53 155c.41.17 0 3.06-.8 3.58M49.64 155.41c.54.26.28 3.15-1.21 3.92"/><path class="cls-2" d="M5 135.39c17.52 5.36 34.39 5 40.65 4"/><path class="cls-1" d="M155.75 128.25c.23.47-.11 2.89-.11 3.41 0 3.81-7.52 7.75-32.39 8.55-27.3.88-35.37-5.34-35.26-7 .06-.82-.09-5.29.6-6.13a15.92 15.92 0 0 1 3.67-.93M88.32 135.06c-.67 1.7-.38 4.77 1.54 6 3.36 2.23 13.92 5.81 33.73 5.81 21.8 0 28.35-4.37 31.69-7.7.82-.83 1-6 .68-6.63M152.65 136a4.13 4.13 0 0 1 0 2.78M149.25 137.38c.41.77.51 3.76 0 4.38M145.13 138.77a13.3 13.3 0 0 1 0 4M141.29 139.18a10 10 0 0 1-.62 4.79M137.5 139.57c.31.54.58 3.94-.5 4.94M89.58 143c-.47.72.54 5.57 1.8 6.31 13.21 7.73 51.22 7.21 60.53.12 1.3-1 3.58-6.43 2.75-7.64M151.83 144c.26.47-.93 4.43-1.39 4.61M147.5 145.72c.36.37.31 3.35-.57 4.28M143.12 146.91c.46.26.72 3.45 0 4.28M139.25 147.43c.52.2.52 4 0 4.48M136.21 148.1c.36.36.62 3.76-.25 4.48M92 151.19c-.41.46 2.17 5.49 3.89 6.18 13.8 5.58 38.75 6.8 52.1-.06 1.92-1 4.27-6 3.92-6.12M147.71 153.51c.46.15-.31 2.38-1.09 3M144.1 154.45c.25.15-.57 2.83-1 3.3M140.44 155c.41.17 0 3.06-.8 3.58M136.55 155.41c.54.26.28 3.15-1.21 3.92M94.59 120.3c-1.34.21-1.33 6.5-.54 6.78 17.52 6.29 53.45 4.68 65.94-1.35 2.18-1 .9-6.14.15-7 0 0-3-1.66-4-1.66"/><path class="cls-2" d="M90.44 127.91a8.13 8.13 0 0 0 3.07.7M86.67 103.71c29.32 6.09 36.74 4 39.68 3.72M91.66 93.07c17.53 5.36 30.51 4.85 36.77 3.87M102.86 75a89.14 89.14 0 0 0 38.72 3.1"/><path class="cls-1" d="M152.78 129.67a7.19 7.19 0 0 1 .13 2.91M149.6 130.37c.48.31.37 3.32 0 4M145.67 131.1a13.66 13.66 0 0 1 0 4.37M141.38 132.07c.5.38.27 4.17 0 4.71M137 132.38c1.1.54 1 3.17.39 4.4M157.27 120.22c.72.31.92 2.57.62 3.71M154.28 121.56a17.31 17.31 0 0 1 0 4.63M149.92 122.07c.34.11.3 3.55.37 4.54M145.85 123a11.54 11.54 0 0 1-.13 4.55M141 123c.57.53.93 4.57.65 5.28M137.42 124.34c.68.82-.28 3.8-.42 4.27M89.06 111.28c-1.34.2-1.35 6.59-.54 6.78 32.26 7.56 55.83 3.53 66-1.35 2.17-1 1.35-7 .14-7 0 0-2.6-1.61-4.32-1.45M151.74 111.19c.72.31.93 2.58.62 3.71M148.75 112a12.05 12.05 0 0 1 0 3.87M144.39 113.05c.34.1 1.11 2.58.52 3.5M140.67 114c.44 1.75-.35 3.63-.47 4.56M135.87 114.9c.58.54.56 3.62.28 4.34M131.89 115.32c.68.82-.28 3.8-.42 4.27M148.71 101.4c1.2 0 2 5.95-.15 7-10.11 4.89-30.36 10.38-63.83 1-1.63-.46-2.47-7.1-1.15-7.45 3.26-.86 4.5-1.63 9.06-1.31M145.83 102.89c.73.31.93 2.58.62 3.71M142.85 103.71a12.06 12.06 0 0 1 0 3.87M138.49 104.74c.34.11 1.1 2.58.51 3.51M134.29 106.5a10.72 10.72 0 0 1 .28 4M130.34 107.55c.58.54.19 2.67-.1 3.39M154.48 91.58c1.21 0 2 6-.14 7-10.12 4.88-31.34 10.1-64.81.74-1.62-.44-1.53-6.62-.53-7.45a14.1 14.1 0 0 1 7-1.34M151.61 93.07c.72.31.93 2.58.62 3.71M148.62 93.9a11.71 11.71 0 0 1 0 3.86M144.26 94.93c.34.1 1.11 2.57.52 3.5M139.63 94.93a15 15 0 0 1 .56 4.53M135.37 95.83c.58.54.93 4.57.65 5.29M131.76 97.19c.68.83-.42 4.89-.42 4.28M161 82c1.21 0 2 6-.15 7-10.11 4.89-31.33 10.11-64.8.75-1.62-.46-1.89-5.75-.6-6.18.58-.19 4.67-1.36 6.91-1M158.15 83.48c.72.31.93 2.57.62 3.71M155.16 84.3a12.06 12.06 0 0 1 0 3.87M150.8 85.33c.34.11 1.11 2.58.52 3.51M146.46 86.57a14.77 14.77 0 0 1 .56 4.54M141.86 87.09c.58.54.94 4.57.66 5.29M138.3 87.6c.68.83-.28 3.8-.42 4.27M126.47 69.43c2.08 0 13 .23 15 .33M161 71.93a30.89 30.89 0 0 1 3.72 1.07c1.13.42 2 6-.15 7-10.11 4.88-29.8 11.32-63.27 2-1.62-.46-2.88-7.39-1.62-7.9 7.79-3.11 17.65-4.55 27.85-4.86M152 70.37c1.79.23 3.83.54 5.59.86M147.61 69.91c.31 0 1 0 1.83.15M161.85 74.51c.72.31.92 2.57.62 3.71M158.86 75.33a12.06 12.06 0 0 1 0 3.87M154.5 76.36c.34.11 1.11 2.58.52 3.51M150.5 78a15.19 15.19 0 0 1 .57 4.54M145.46 78.63c.58.54.93 4.57.65 5.29M141.67 79.91c.68.83-.28 3.81-.42 4.28"/><path class="cls-2" d="M151.15 120a25.21 25.21 0 0 0 4.68-1.13M147.42 110.53a27.06 27.06 0 0 0 4.85-.73M97.67 84.38c2.63 1 12 1.79 13.94 1.86"/><path class="cls-1" d="M34.85 131.61c.59.46 3.17.18 3.89-.5M27.17 131.84c.47.07 3.73.71 5.23 0"/><path class="cls-3" d="M135.88 28.9c.25-1.72 1-8.28 1.14-9.22s-.26-1.87-2-2.21-12.82-.69-14.09-.69a2.85 2.85 0 0 0-2.68 1.88c-.1.86-.47 7-.52 7.85a2.59 2.59 0 0 0 2.52 2.39c.76.08 11.55 1 12.39.85s3.07.38 3.24-.85z"/><path class="cls-4" d="M125.41 31.45c-.5 1.16-3.29.91-3.67-.39M123.14 32.33a21.19 21.19 0 0 1-7.62.13c-1.4-.39-2.4-1.95-2.93-3.58a40.12 40.12 0 0 1-1.29-5.4"/><path class="cls-3" d="M134.21 30.43c.38-.07 1.32.33 1.07.82s-.47.42-1.34.46-15.24-.84-15.62-1.06a1.43 1.43 0 0 1-.56-1.15c0-.44.28-.82.78-.49a2.72 2.72 0 0 0 1.12.43 127.26 127.26 0 0 0 14.55.99z"/><path class="cls-4" d="M116.55 18c-.77 0-4.36 1.18-5.11 3.06s.93 7.3 1 8.3.46 2.93 1 3.17a11.89 11.89 0 0 0 4.73.31 37.65 37.65 0 0 1 6.1 0c1.56 0 3.77-.42 3.6-2.15"/><path class="cls-3" d="M126.79 32.46a4.81 4.81 0 0 1 0 1.1l-4.69.32v-.88zM113.98 32.97h5.2v.9h-5.2z"/><path class="cls-4" d="M116.55 34.52s-1 2.25-2.06 2.62M114 34.52a38.69 38.69 0 0 0-.53 4.11c0 1-1.6 28.91-.45 29.78 3.75 2.82 4.57.4 4.87 0 .62-.81 1-11.73 1.31-13.7l2.32-15.4a2.67 2.67 0 0 1 1.28-.68M125.79 33.88c.39.35.73 3 1.35 2.9M127.26 40.35a6 6 0 0 0-.72 1"/><path class="cls-4" d="M117 16.78c-.31-.27-.15.85 0 1.25s1.18 1.17 1 .76l.33-1.28s-.43.05-1.33-.73zM116.58 23.48a17.64 17.64 0 0 1 .86 4 4.52 4.52 0 0 0 2 1.1"/><path class="cls-3" d="M112.62 69c-.48.11-.39 1.87.38 2.38s.47.12.78.51a3.46 3.46 0 0 0 3.49 2c2.54-.14 3.35-1.29 2.46-2.43-.43-.55-1.2-1.13-1.47-1.54a3.68 3.68 0 0 0-.87-.94c-.29.32-.22.58-1.19.61a34.6 34.6 0 0 1-3.58-.59z"/><path class="cls-4" d="M117.19 46.41c-.24 2.17-1.68 21.3-1 22.16M121.19 41.4c.78 2.54.14 25.27 0 26.2s2.27 1.47 2.77 1.65a1.5 1.5 0 0 0 1.64-1.35c.12-1 .25-6.32.31-6.87l2-20.68a3 3 0 0 1 .42-.91c-.17-.2-.22-.57-.44-.71a45.13 45.13 0 0 0-.57-4.85M124.73 48.16c0 1.5-1.17 20.06-.77 20.41"/><path class="cls-3" d="M121.18 68.93c-.43-.31-.33 1.86 0 2.1s.79.1.89.36a3.4 3.4 0 0 0 1.89 1.8c1.46.33 3.93-1.1 2.8-1.8s-1.86-1.22-1.68-1.63-1 .1-1.72 0a6.42 6.42 0 0 1-2.18-.83z"/><path class="cls-4" d="M117.63 15.52a6 6 0 0 0 2.78.7c.59-.12 3.15-1 3.23-2.09a13.23 13.23 0 0 0-.11-1.71c0-.58.34-.43.55-1.56.35-1.94-2.21-4.41-3.67-4.93-2.88-1-9.11 2.65-4.18 7.54.32 1.68 1.05 1.88 1.4 2.05zM117.47 15.77a8.8 8.8 0 0 0 .13 1.45M120.54 16c0 .41-.31.47-.4.94"/><path class="cls-4" d="M117.24 10.89c-.31 0-.5.39-.5.75s.36.54.68.61a6.45 6.45 0 0 0 2 0c.29-.12.72-1.23-.11-1.27s-1.68-.08-2.07-.09zM119.93 11.64a5 5 0 0 1 .67 0"/><path class="cls-4" d="M121.58 11c-.22 0-.7.06-.64.61s.23.69.6.74h1.78s.31-1.13.11-1.23a7.39 7.39 0 0 0-1.85-.12zM119.62 14.49a1.93 1.93 0 0 1 1.27-.29"/><path class="cls-3" d="M116.31 10.89c.67.32 2.54-1.23 3.23-1.76a2.3 2.3 0 0 1-1.15 1.46c1-.08 3.42-.84 3.71-1.36a2 2 0 0 1-.64 1.15c.92-.24 2.41-.49 2.44-.81.21.59.08.87-.3 1.07.9-.2 1.06-.7 1.32-1.28s-3.45-8.5-10-2.74c-2 .66-1.48 4.8.35 6.36 1.14.51.74-.22.74-.22-1.51-.65-1.62-4.62.3-1.87z"/><path class="cls-5" d="M127.68 9.51c1.12-.76 3.19-2.92 2.15-3.56s-5.34-2.83-3.56-3.46 2.36-4 3.56-1.41c.76 1.6.13 2.4-.31 2.4-.27 0-.47-.29-.25-.87.56-1.53 3.72.13 2.52 1.16s-4.21 1.13-4.28-.52 3.06.4 3.2 0-.29-2.73-1.71-1.91-1.89-.86-2 0"/><path class="cls-2" d="M30.5 75.76c-2.55.79-2.11 4.5-1.19 7.33.81 2.46 1.6 5.52 5 4.67a4.23 4.23 0 0 0 3.56-4 1.64 1.64 0 0 0 .87-2.07c-1.21-3.32-4.08-7.21-8.24-5.93z"/><path class="cls-4" d="M29.47 90.4c-2.33 2.12-3.28 3-3.92 4.91"/><path class="cls-3" d="M16 96c3-.3 12.23-.42 13.72-.63s3.88 0 3.88 3.78 1.47 10.18 1.25 11.07-1.51 1.25-2.85 1.25-11.68.66-12.69.66-2.66-.23-2.88-1.67-2.31-11.46-2.53-12.46.97-1.9 2.1-2z"/><path class="cls-4" d="M38.59 107.75c.83.26 6.62-2.25 7.06-4.78.41-2.38-1.59-12.1-6.73-13.49M27.64 131.11c0-3.15-3.62-12.8-3.25-15.57.11-.83.95-3.75 1.61-3.72M41 107.27c3.51.84 2.72 8.37-1.76 9"/><path class="cls-6" d="M30.4 97.53c0 .66 1.78 11.63 2.09 12.23"/><path class="cls-2" d="M35.2 104.81c1.44-.45 5.71-2.77 6.12-3.35s-.84-3.89-.81-4.22"/><path class="cls-3" d="M39.19 117.78c3.14 1.38 10.89-3.8 4.69-4.55a9.32 9.32 0 0 1-1.82 2.83c-1.06.94-3.86 1.28-2.87 1.72zM41.26 118.28a8.2 8.2 0 0 0 2.74-.72s1.72 12.41 1.39 12.71-2.51 1-2.51.14-1.43-11.69-1.62-12.13zM23.68 131.47c0-.86 2-1.31 2.86-1.65 1-.42 2.34.32 3.67.42.91.07 2.19-.75 2.62-.74.26 0 .29-.06.46.32.39.88-1.78 2.72-3.08 3.48a7.4 7.4 0 0 1-6 0c-.52-.3-.52-1.04-.53-1.83zM34.8 110.62c.82.2 6-1.61 5.87-1.93-.62-1.25-4.84-1-6.09-1.1"/><path class="cls-1" d="M35.82 105.32a3.24 3.24 0 0 1 .86 2.45"/><path class="cls-2" d="M36.4 89.21c-.46.46-2.58 1.54-2.58 2"/><path class="cls-4" d="M34.56 91.56c.48.11.43.93.13 1.16 0 0 3-2 3.15-2.9a4.05 4.05 0 0 0-.12-1.45 9.7 9.7 0 0 0-1.32-.54M32.27 90.19c.26.16 1.2.74 1.16 1M32.34 91.22a2.17 2.17 0 0 0-.07 1.14c-1.27-.18-1.94-2.16-1.69-2.81.14-.34 1.27-1.1 1.27-1.1"/><path class="cls-2" d="M32.27 87.76c.26.62.66 1.85.22 2M35.77 87.14c-.45 1 .2 1.36.63 1.76"/><path class="cls-3" d="M32.39 82.91a.42.42 0 0 1-.44.4.4.4 0 1 1 0-.8.42.42 0 0 1 .44.4zM35.19 82.84a.38.38 0 0 1-.39.39.39.39 0 0 1-.4-.39.4.4 0 0 1 .4-.39.39.39 0 0 1 .39.39z"/><path class="cls-2" d="M32.49 85.35a2.53 2.53 0 0 0 1.91 0"/><path class="cls-3" d="M29.11 82.48c.15.45-1.47-.33-1.49-2.07a1.91 1.91 0 0 0-.46.77c-.38-.63-.35-.69-.12-1.19-.27-.08-.23-.87-1.1-.18.34-1.38 1.62-5.72 5.83-5.17a6.9 6.9 0 0 0-1.62-.47c.73-.42 3.32.12 3.67.39-.19-.47.08-.58-.42-.74.69-.11 2.24 1.2 2.22 1.4a1.15 1.15 0 0 1 1.06-.47c-.27.27-.25.37-.27.47a5.47 5.47 0 0 1 1.8.52c0 .16-.42.11-.36.16a4.64 4.64 0 0 1 .89.69c.36.78 1.17 5.78.08 5.86-.18 0 .21-2-1-1-.24.21.09 2.75-.22 2.73s-.72-2.37-.72-3c-.51-.16-1.2-1.45-1.29-1.65s-.92-.24-1.72.07-3.65.65-2.57.05c.37-.2-1.88.15-2 2.2-.05.43-.3.15-.19.63zM33.84 134.63a6.42 6.42 0 0 1-3.08-.65c-.57-.35-.58-1.07-.6-1.83s1.25-1.25 2.26-1.59c.25-.09.49-.16.67-.24a1.83 1.83 0 0 1 .73-.13 6.33 6.33 0 0 1 1.53.27 9.27 9.27 0 0 0 1.45.28h.11a5 5 0 0 0 1.63-.46 2.79 2.79 0 0 1 .87-.28l.11.1v-.1c.25 0 .32.09.45.37.43 1-1.86 2.87-3.12 3.61a6.22 6.22 0 0 1-3.01.65z"/><path class="cls-7" d="M39.57 130.1c.13 0 .18 0 .31.31.39.89-1.79 2.72-3.08 3.49a6.26 6.26 0 0 1-3 .63 6.36 6.36 0 0 1-3-.63c-.54-.34-.53-1-.55-1.83s2-1.31 2.86-1.66a1.84 1.84 0 0 1 .7-.12c.89 0 1.93.47 3 .55h.11c.89 0 2.07-.74 2.5-.74h.16m0-.2h-.16a2.88 2.88 0 0 0-.91.28 4.62 4.62 0 0 1-1.59.46h-.1a8.81 8.81 0 0 1-1.43-.28 6.56 6.56 0 0 0-1.56-.27 1.89 1.89 0 0 0-.77.14l-.67.24c-1 .35-2.33.78-2.32 1.6v.09c0 .78 0 1.53.65 1.91a6.48 6.48 0 0 0 3.13.66 6.29 6.29 0 0 0 3.06-.66c1-.6 3.66-2.6 3.16-3.74-.12-.27-.21-.43-.49-.43z"/><path class="cls-4" d="M33.91 131.13c-.5-2.18-2.67-12.9-3-15.59-.1-.84-.49-4.1 1.58-4.1M37.44 115.25c.42 3.35 2.17 13.22 1.65 15.16"/><path class="cls-4" d="M152.77 34.53a77.41 77.41 0 0 1-.38-12.69c.21-1.79 2.57-2 3.46-2.08s8.21 3.52 8.58 4.75 1 21.06-.56 20.82a4 4 0 0 1-2.57-.25c-2.43-1.54-8.05-7.71-8.53-10.55z"/><path class="cls-8" d="M125.94 55.1c.25-1.46-5.07 10.72 6.64 10 8.3-.49 12.45-2 12.45-2"/><path class="cls-3" d="M154.42 23.19c.26-1.44 6.71 2.45 6.91 2.87s.54 16.34 0 16.54c-.38.14-6.51-6.49-6.71-8.45s-.51-9.21-.2-10.96z"/><path class="cls-4" d="M143.15 26c6.82 1.5 2.51 4.65 4.6 8.33 1.43 2.5-1.09 6.16-5.37 4.74-7.21-2.45-5.38-14.46.77-13.07z"/><path class="cls-8" d="M137.84 52.6c0 5.18-6.05 5.63-10.93 2.93-1.62-.9-2-1.78-2.67-3.71-1.35-4.2 6.58-15.37 8.54-14.57"/><path class="cls-4" d="M143.72 54.9c2.59.66 6.55-.43 9.11-.67l.12-3.64a48.81 48.81 0 0 1-9.29 0"/><path class="cls-2" d="M154.2 53.17l-.79-.06M153.52 50.59c1-.13 1.6-.33 1.48-.59"/><path class="cls-4" d="M143.7 64.32c0 1.4-2.87 5.44-2.16 5.89 1.57 1 1.08 1.22 2.52 2.31 2.4 1.8 7.57-11.79 5.15-13.86-.82-.71-5-5.1-12.2-2.23M160.82 45.44c.1 1.27 0 3.85 0 3.85h1.85l.6-3.85M160.82 45.71l-16.06.84 2.33 4.01M148.99 55.17l.47.85 19.43-1.62-6-6.49M149.46 56.02l.18 3.31 18.84-1.73.41-2.43"/><path class="cls-2" d="M155 53c.56.37 2.43-.7 3-.73 1.75-.1 1.69-2.76.05-2.59-1.23.13-1.1-.54-2.21.15"/><path class="cls-3" d="M154.61 53.69c0-.27 2.55-.1 3.12-.89 2.53-.8 1.24 1 .36 1.23-1.19.26-3.53.37-3.48-.34z"/><path class="cls-4" d="M159.32 53.11c3.29.85 4.17-3.83 3.43-4.33M132.86 38.88c2-.3 4.28 2.56 4.74 3.74l4.75 6.9a.6.6 0 0 1 1 .48M131.11 43c-.49 2.2 7.45 9.39 7.69 9.89.65 1.34 2.61 2 4.13 1.81M136.73 37.11c1.62 2.41 3.34 2.53 3.54 2.94a13.61 13.61 0 0 1 0 2.9s-1.41-.57-1.6-1.41-5.42-3.69-5.62-4.43c-.12-.42 3-.32 3-.32"/><ellipse class="cls-3" cx="145.89" cy="33.14" rx=".44" ry=".45"/><path class="cls-4" d="M146.22 30.93c.11.22-.53 1.31-1.08 1.36M146.59 37.38c-.27-.15-1.25-.73-1.34-.56"/><path class="cls-3" d="M140 31.61c.69.38 1.23 2.55 1.23 3.24s1.17.39 1-.54a13.48 13.48 0 0 1 .44-3.38l2.08-2.08c.31-.31 1.51 0 2.41-.05s1.18-1.44.55-2.52c-.34-.57-5-4.8-10.26.15a3.34 3.34 0 0 0-2.5 2.9c0 .69.7 4.48 1.59 5.64a11.47 11.47 0 0 0 3.29 2.41c-.7-1.06-1.63-6.31 0-5.77"/><path class="cls-3" d="M125.75 64.14c.65.92 5.15 2.64 9.31 1.81 4.64-.93 6.17-.24 4.6.74-5 3.09-14.84 3.46-17.47-.52s3.18-2.58 3.56-2.03zM129.92 68.84c.31 0 1.47-.24 1.69-.27 0 0 .25 6.32.2 6.76-.08.74-3 1.32-2.57-.22a55.59 55.59 0 0 0 .68-6.27zM122.29 45.72c4.17 1.17 6.84 1.86 8.45 1.86s2.51 8.07-1.92 7.27a36.72 36.72 0 0 1-8.67-2.44c-1.35-.67-.86-7.53 2.14-6.69zM122.75 49.59c-1.08 2.36-1.82 13.62.6 16.74 1.45 1.87 2 1.07 1.47-.14-1.64-3.7-2.92-15.1-.22-16.25.78-.34-.99-2.22-1.85-.35zM131.3 74.67c0-.69 6.57-.42 7.31-.23 1 .26 1.57.85 1.21 1.67s-1.46.74-1.46 0-.41-1-1.47-1.08c-.82 0-4.3.63-5.59.32-.36-.09.02-.43 0-.68zM129.77 74.67c0-.69-6.57-.42-7.32-.23-1 .26-1.56.85-1.2 1.67s1.46.74 1.46 0 .41-1 1.46-1.08c.83 0 4.3.63 5.6.32.35-.09-.02-.43 0-.68zM123.54 77.08a1.54 1.54 0 1 1-1.54-1.28 1.41 1.41 0 0 1 1.54 1.28zM132 78.56a1.86 1.86 0 1 1-1.82-1.48 1.68 1.68 0 0 1 1.82 1.48zM140.63 77.08a1.54 1.54 0 1 1-1.51-1.28 1.41 1.41 0 0 1 1.51 1.28zM129.92 75.28c-.35.1-1.24 2.12-.72 2.55s2.49.56 2.18 0-.23-2.19-.62-2.37-.45-.3-.84-.18zM140.43 72.54c.47.11 3 1.13 3.23 1.68s1.55 1.78 1.84 1.78.89.7 1.16.93 0 1.31-.49 1.47a8.55 8.55 0 0 1-3.89-.06 6.58 6.58 0 0 1-2.64-2 11.81 11.81 0 0 1 0-2.85c.09-.57.19-1.09.79-.95z"/><path class="cls-4" d="M141.36 70.75c-.52.23-1 1.64-1 1.64M143.7 72.75c0 .15-.53.67-.54 1.1M150.26 59.39c0 2-.72 17.69-.72 17.69h1.69l.65-17.69M166.52 57.78v18.91l1.6.02v-18.93M160.57 58.33l-.47 14.21-1.17-.31.29-13.77M141.28 38.88c-.19.12-.71.85-.59 1.15M138.17 36.47c-.1.19-.75.57-.69.86M139.9 43.24c-.36.31-.78 0-.73.69"/><path class="cls-4" d="M99.13 24.64a4.76 4.76 0 0 1 .12 1.78c-.19.72-1 .81-1 1.46 0 2.7 1.48 3.45 3.68 3.82 2.49.42 5.11-1.72 5.64-4.88s-1.06-6-3.55-6.46-4.36 1.13-4.89 4.28zM103.24 37.52a63 63 0 0 0-4 6.65l-.83.86c-.27.59.17.57-.07 1.08-1.65 3.45-4.34 4.53-4.34 4.78.26.88 1.72 3.22 3.32 1.91 1.06-.86 4.73-3.94 5.83-6.83.36-.95 3.51-5.63 3.46-6.62-.06-1.82-1.61-3.35-3.37-1.83zM93 51.12c-1.31 1.4.14 1-.16 1.64s-1.29-.22-.94 1.31 3.13.94 3.94-.29M92.16 50.69c-1.45-.08-5-2.47-8.43-1.9-.84.14-3.57-2.28-2.77-4.22 0-.85-.38-.75-.3-2 3.52-.42 8.89.58 15.6 3.5M89.2 50.41c.75 1.6 1 1.62 2.26 1.47l.54-.88M95.78 44.29c.07-1.08 3.15-6.39 3.15-6.39M104.79 31.19a3 3 0 0 0 .44 1.45M106.2 34.83c3.72 1.68 1.8 10.17 2.8 11.17.68.69-9.17 7.79-7.63 3.51"/><path class="cls-3" d="M100.69 53.22c-.37 2.61-4.61 7.8-3.11 8.32a26.19 26.19 0 0 0 5.62 1.29 7.16 7.16 0 0 0 3.61.07c1.37-.55 3.24-2.46 2.38-3.71-1.34-1.93 1.75-4.9 1.8-6.85.11-4.28-.26-5.05-1.68-6.51"/><path class="cls-4" d="M101.7 63.67c2.39-.32 8.73 3.65 10.24 5.44.48-.22.7-.7.91-.62M97.89 62.31c-.88 1.81-1.56 3.18.66 4s10.94 4.06 12.43 5.26M82.15 44c2.54-.73 12.52 2.54 13.62 3.13M82.36 45.74c2.16-.74 11.77 2 12.44 2.6M83 47.13c1.08-.36 10 2 10.75 2.41M81.12 42.19c-1.6.23-3.62.93-3.64 1.27l-3.3-1.65a47 47 0 0 1 22.86 3"/><path class="cls-3" d="M111.45 71.83c.24.53-.18 1.76.38 1.38s1.09-3.09.35-4.24c1.84-2.13 3.2 2.72 3.2 2.72l-.27.39-.39-.42s-.35 1.75-.39 1.87-1.23 3.14-2.1 3.31-3.47-.5-2.36-1.08 1.49-.49 1.49-1.4-.15-3.05.09-2.53z"/><path class="cls-4" d="M108.21 62.48a14.7 14.7 0 0 1 1.73 4M105.58 63.41a5.42 5.42 0 0 1 .92 1.18M102.92 62.89c-.19.51-.83.59-1.15.61"/><path class="cls-3" d="M100.16 50.25c-.25.61-.58 3.53-.09 4.35.35.59 4.49-4.66 4-4.46s-3.23 1.54-3-.43z"/><path class="cls-4" d="M102.55 31.92a3.07 3.07 0 0 1-.33 2.56M100.36 36.64c-1.24.73-3.86 5.1-2.45 8.07M105.38 32.87a10.27 10.27 0 0 0-4.59 3M101.09 36.24c-.23.43 0 .66-.38.81s6.56-2.24 5.77-2.87c-.49-.39-.59-1.12-.74-1.29"/><path class="cls-3" d="M100.84 26.4a.31.31 0 1 1-.62 0 .32.32 0 1 1 .62 0z"/><path class="cls-4" d="M100.23 24.62a2 2 0 0 0 1.17.85M100.22 29.54c.94-.38 1.6.61.77.53"/><path class="cls-3" d="M103 22.94c-.11 1.63-1 9.84 4.32 10.49 1.4-.27.32-.44 0-.79s2.54.19 3.7-.72c-1.59-.54-1.44-.22-2.46-1.41-.32-.37.49-1.94 1.3-2.91s-1.12-5.87-2.65-6.2c-.86-1.36-4.65-3.39-8.27-1.22s-.81 4.75 0 5.11a1.83 1.83 0 0 1 1.43-2.35c-.23.82 1.2 2 2.1 2.11-.4-.85.53-2.11.53-2.11z"/><path class="cls-2" d="M105.92 17.67c2.21-1.67 3.3 0 1.88.3M109.18 19.89c3.27-.59 3.52 1.79 1.84 1.34"/></g></svg>