<svg xmlns="http://www.w3.org/2000/svg" viewBox="0 0 70.84 77.44"><defs><style>.cls-1{fill:none;stroke:#fff;stroke-linecap:round;stroke-linejoin:round;}.cls-2{fill:#fff;}</style></defs><g id="レイヤー_1"><path class="cls-1" d="M38 .5c-9 3.43-31 13.15-33 14.12s-5.37 1.82-2.78 6.18 20.16 45.78 21.78 48.95 3.8 5.75 9.86 2.94 31.69-20.31 34.56-22.32 2.2-4.79 0-8c-2-3-23.12-37-24.36-39.44M28.69 20.41c.73.36 2.25-.47 2.2-.89"/><path class="cls-2" d="M27.72 17.85a.39.39 0 0 1-.35.44.4.4 0 0 1-.44-.35.39.39 0 0 1 .35-.44.39.39 0 0 1 .44.35zM30.59 16.72a.39.39 0 0 1-.35.44.39.39 0 0 1-.44-.35.39.39 0 0 1 .35-.44.39.39 0 0 1 .44.35z"/><path class="cls-1" d="M.78 20.58a4.56 4.56 0 0 0-.15 2.62s20 47 22.06 49.74c1.94 2.55 6.9 5.67 11.08 3 10.23-6.72 32.43-20.64 33.9-21.94s2.78-2.53 2.66-3.11M32.25 15.69c.65.8.67 1.61 1.2 1.91s1.08 3.32-2.26 4.55-6.2.7-6.63 0c-.66.47-2.13-1.75-.8-2M22.91 18.28c.36.31.76 1.55 1 .67s0-1.95.21-2.52c.93-2.46 5.85-3.41 7-3s1 .74 1 1.11M22 14.46c0-.86 2-4.62 1.43-2.31.93-.83 2-1.27 4.33-1.7a4.23 4.23 0 0 1 4.71 2.18M21.21 15.54c-1.86.9.1 3.93 1.18 5M24.69 24.86c-.44-.09-2.26.46-1.59 1.18s-.3 3.28.95 3.64 3.1-1.18 1.89-3.93M26.67 25.75c.56.09 1.52 1.55.53 2.18M22 25.82c-1.71-.07-3.65 2.07-3.37 2.95.56 1.77 2.39 2.87 4.82 1.55M35 18.65c.07-1.06-.21-8.07 0-8.07s2.61.86 3.66.62c.66-.15-1.77 9.32-1.67 10.2.16 1.31 1.76 4.47 3.25 5.44M21 13.34c-9 2.43-10.12 27.51 14.79 17.36 13.21-5.39 6.33-13.7 4.46-14.7"/><path class="cls-2" d="M20 40.44c-1 .93 4.74 5.65 2.23 8.52s1.83.51 2.14-1.43-2.83-7.89-3.54-7.5a2.4 2.4 0 0 0-.83.41zM22.13 40.27c4.39-2.28 9.14 3.22 2.57 7-.32-.3 2.51-3.48 1.88-5-.29-.77-.15-2.67-4.45-2zM32.29 42c-.88.06-2-.46-1.19-.74s3.18-2.11 1.63-2.64a3.71 3.71 0 0 0-3 0c-.58.26-2.21 3.92.48 4.36s3.66-.44 4.06-1.89c-.92.35-1.1.8-1.98.91zm-1.95-2c-.05-1.43 1.69-1.44 2.3-1s-2.2 3.42-2.3.92zM37.51 36.26c-.16.8-2.18-.66-2.52.54-.26.9.81 1.13 1.77.58 1.74-1 4.09.51 1.66 2.41-1.77 1.39-3.43 1-3.23.24.34-1.38 1.55-.78 2.18-1.07.4-.18.92-.88.59-1.26s-.88 0-1.25.17-2.42.91-2.12-1c.18-1.19 1.12-1.15 2.11-1.2.66-.02.88.22.81.59zM39.44 35.86c-.26-.68 1.36-2 1.73-1.22s.86 2.67 1.3 2.63 1-1.57 1.19-.7-2.17 2.47-2.44.57-1.56-1.88-1.78-1.28zM39.36 33.25c-.21.22.28 1.07.74.64s-.26-1.14-.74-.64zM48.14 37.23c-.29-1.19-2.44-5-2.93-5.12s-.87.68.24 1.23c-1.37-.34-2.67 1.18-2 2.15s2.89.3 2.69-1c.55.45 2 3.56 0 3.2-1.53-.27-1.06.61-.29.84s2.59-.12 2.29-1.3zm-3-1.76c-1.21.5-1.78-1-.79-1.46 1.49-.69 1.85.99.79 1.46zM46.72 31.28a3.84 3.84 0 0 1 1.44 2.57c0 1.14 1.26.23 1.05-.46-.41-1.38-1.29-1.93-1.07-2.31 1-1.79 2.77-.15 2.72 1.17 0 .78.91.81.54-.34a2.48 2.48 0 0 0-2-1.9c-.85-.1-1.68.2-1.8.8-.1-.1-.44-.45-.66-.47-.69-.08-.72.58-.22.94zM52.64 29.45c-.65.35-2-5.11-.92-4.89s1.84 4.44.92 4.89zM55 29.05c-.68.29-1.52-5.26-.51-4.95s1.44 4.54.51 4.95zM53 30.75c-.56.39-.62 1.8.36 1.53s.25-1.91-.36-1.53zM55.89 31.88c.12-.68-.85-1.7-1.34-.81s1.22 1.48 1.34.81z"/><path class="cls-1" d="M24.07 49.9c2.41-1.9 25.59-16.9 33.93-16.17"/><path class="cls-1" d="M31.62 51.66c-3 2-6.72 2.59-5.21 6.18 2.47 5.92 4.83 5 10.07 2.16s8-3.21 4.89-7.19c-3.54-4.6-5.27-4.17-9.75-1.15zM31.8 64.2c-.3.3-2.34 1.33-.95 1.33s2.42-.06 1.86.3-2 1.45-1.09 1.69M33.62 65.74c-.08-.91.31-.91.84-.63s.77.79.92-.17.62-.74 1-.46M37.18 63.43c.51-.7.09-.21 1.3-.35s1.51-.21 1.74-.77 1-.7 1.46-.7 1.46-.19 1.46-.69.61-1.75 1.3-1.68M43.67 48a2.32 2.32 0 0 1 2.07-1.43c1.46-.23.94.24 1.56-.54s.87-1.46 1.78-1.23M49.92 44.52a1.75 1.75 0 0 0 1.77-.52M52.31 43.39c.39-.44 1.35-.85 1.6-.69s.69.34 1.1-.45a1.23 1.23 0 0 1 1.28-.82 3.29 3.29 0 0 0 1.59-.43c.23-.23.92-.38 1-.84M45 50.81c1.26-.31 1.11.17 2.42-.38s1.38-.55 1.85-1.09.8-1.16 1.73-1.34a10.88 10.88 0 0 0 2.91-1.23c.49-.32 2-1.3 3-1.81s1.55-.25 2.4-1l1.78-1.6M46.83 53.36c1.31.16 1.21.7 2.46 0s1-1.62 2-2M52.31 50.81a5.09 5.09 0 0 0 2-.6c.51-.4-.26-.25 1.33-1.18a7.54 7.54 0 0 1 2.28-1c.38-.16 3.55-3 4.32-3.2"/><path class="cls-1" d="M35.41 9.57c-.51.3-2.27-1.3-.53-1.89 1.23-.41 1.54 1.32.53 1.89zM35.42 6.68c.46-.48 1.66-1.12 2.33-.77.47.24 2.37.54 2 1.71s-.06 2.18-1.25 2.56"/></g></svg>