<svg xmlns="http://www.w3.org/2000/svg" viewBox="0 0 59.27 46.29"><defs><style>.cls-1{fill:none;stroke:#fff;stroke-linecap:round;stroke-linejoin:round;}.cls-2{fill:#fff;}</style></defs><g id="レイヤー_1"><path class="cls-1" d="M20.12 26.51c-8.4-3.44-15.75 11.92-6.42 15.92s17.42-11.43 6.42-15.92zM18.37 22.63c-13.37-1.16-18.17 21.94-.99 23.13 14.49 1 15.36-21.88.99-23.13zM15.91 37.13c-.92 0-2.29-2.87-.75-4.33M16.76 31.11a4.59 4.59 0 0 1 1.24-.37M13.06 21.88c2.56-2.1 7-4.22 8.43-4.29 6.34-.29 15.16 3.07 14.25 13.75-.27 3.08-5.92 10.23-8.53 11.54M33.37 15.85c-4.3-1.45-8.36-2-11.23-1.63-.75-1.25.48-6.46.48-6.46s4.54-6.91 11.7-7.25c2.16-.1 10.68.49 10.53 2.67s-7.22 3.58-8.41 5.58M34.59 15.26c0-.75 1-4.13.65-4.5M34.59 38.05c3.92 1.5 13.29 2.46 17.29 1.26 1.94-.59 6.78-7.9 6.81-9.92.09-5.59.47-16.24-1.75-18a6.19 6.19 0 0 0-2.56-.56M37.63 16.82c.93.56 10.44 1.78 13.63 2.32 1.31-.13 4.68-3.07 4.68-4.19M52.29 26.16c.63 3.69-.68 6.24-.68 9.9"/><path class="cls-2" d="M50.53 9.85c-2.23.05-4.06 1.49-.56 1.88 5.17.58 3.47-1.94.56-1.88z"/><path class="cls-1" d="M48.22 12c-.06.43-.35 1.49.17 1.85a5.59 5.59 0 0 0 4.54.11 1.93 1.93 0 0 0 .36-1.53"/><path class="cls-2" d="M17.06 5.18c-2.55.05-4.66 1.7-.64 2.16 5.93.66 3.99-2.23.64-2.16zM5.88 11.56c-1.49.06-2.71 1.71-.37 2.16 3.49.67 2.31-2.23.37-2.16z"/><path class="cls-1" d="M14.41 7.65c-.07.51-.4 1.71.19 2.13a6.39 6.39 0 0 0 5.22.12 2.23 2.23 0 0 0 .42-1.75M44.87 1.76c0 4-.63 6.52-1.42 7.79a8 8 0 0 1 3.64.24M1.81 15.26c-.38 1.68-4.07 18.41 2.93 18.41M17.38 13.2c-1.87-.3-6.8-1.95-7.43-.51s-2.12 4.19-5.21 2.75c-2.25-1-4-2.71-.93-6.81 1.75-2.33 6.06-3.46 9.25-2.57M10.89 15s.1 4.11 0 5.73"/></g></svg>