<svg xmlns="http://www.w3.org/2000/svg" viewBox="0 0 67.66 64.1"><defs><style>.cls-1,.cls-2{fill:none;stroke:#fff;stroke-linecap:round;}.cls-1{stroke-miterlimit:10;}.cls-2{stroke-linejoin:round;}</style></defs><g id="レイヤー_1"><path class="cls-1" d="M7.56 5.71c-4.39 2.4-3.15 31.2 2.37 32 9.92 1.36 43.13 1.5 49.13-1.33 4.94-2.38 4.58-31.58-4.58-32.11-6.3-.37-41.67-1.43-46.92 1.44z"/><path class="cls-2" d="M11.85 8.84l-2.5 2.16 2.5 2.17"/><path class="cls-1" d="M17.15 7.67a25.82 25.82 0 0 1 0 5.16M16.65 10.46c-2.54-1.21-2.83 3.16.5 1.62M20.18 13.17a3.76 3.76 0 0 0-.18-2.17M19.82 8.42c-.25-.05-.1.5.17.42M22.37 11.15c.22 0 .72 1.3.44 1.68s2.43-1.93 1.65-2.59"/><path class="cls-2" d="M26.86 8.63l2.59 1.83-2.59 2.17M21.81 18.21l-2.88 2 2.13 3.13M24.92 18s-.15 4.69-.49 5.27c0-2.12 3.54-4.7 2.09 0M28.82 19.62c.44-.37 1.25-1.21 1.25-1.21l-.52 4.76M33.2 18.21a21.91 21.91 0 0 1 2.17 2.56 22.17 22.17 0 0 0-2.17 3.11M38.34 18.77h2.94M39.81 18.77s.09 3.5 0 4.57M43.34 23.29c.12-.77-.31-1.33 0-1.95M43.36 18.94c.19 0 .32.63 0 .63M45.75 20.71c.28 0 1.09.19 1.4 0M46.45 18.94c0 .52-1 5.08.7 4.24M49.59 18.77c.5-.31-.88 6.14.81 4.21M53.25 21.67c2.28-.88-.87-2.73-1.13-.33-.21 2 .92 2.58 2 1.75M59.06 18.02l-1.63 2.64 1.63 2.68M11.14 28.92l-1.79 2.42 2 2.83M16.6 28.92l-1.9 5.25M21 28.92a24.15 24.15 0 0 1 0 5.25M20.26 33.52c-2.17 1.69-2.69-2.5-.13-1.68M23.27 31.9c0 .19-.18 2.28.19 2.41M23.24 30.24c.07-.09.44-.28.11-.4M25.65 32.37c.47-.47 1 1.2.75 1.8s2.78-2.17 1.6-2.44M30.31 28.92l2 2.46-1.63 2.88"/><path class="cls-2" d="M8.18 1.34c-2.32.21-8-.18-7.67 7.07s.67 21.7 1.17 25.9 4.17 7.69 9.67 7.69 41.66.19 44.83.21c6.08 0 11-4.5 10.17-12.33s-1.11-19.25-1.95-23.24c-.59-2.84-4.53-6.27-10.28-6.14-6.79.17-42.37.5-45.94.84zM10.35 49.59c-2.22.14-8.42 6.25-7.67 8.75s.23 3.87 3.25 4.12 57 2.46 59.5 0 1.77-3.3 1-4.47-3.18-7.86-7.26-8.11c-2.99-.23-44.82-.54-48.82-.29zM6.6 58.84c1.83.08 56.58 2.08 57.16.83M11.62 57.46c.37-.93 1.81-5.25 2.19-5.68M19.24 51.78c-.31 2-1.12 3.68-1.31 4.87M24.87 52.15c-.25 1.81-1.5 5.06-1.44 5.31M30.37 52.15c0 .5-.81 3.19-.94 4.13M36.56 52.15c0 1.25-.69 3.5-.88 5M42.31 52.15c-.07 1.5-.25 3.25-.44 4.5M53.49 52.71c.64 2.1.53 3.57 1.32 5.29M58.74 52.71c.19.57 1.69 4.7 2.44 5.29M47.37 52.15c.06.75.25 5.51.25 5.85M11.87 52.15c.62-.06 47.25.31 48.5.56M8.74 55.08c.75.13 51.57 1.07 53 .76"/></g></svg>